# xmcd CD database file
# Copyright (C) 1993-2000  Ti Kan
#
# Track frame offsets:
#	900
#	21742
#	42217
#	59917
#	82822
#	105690
#	139512
#	156012
#	179860
#	206587
#	232875
#	258852
#	277410
#	303642
#	324552
#	338657
#
# Disc length: 4788 seconds
#
# Revision: 2
# Processed by: cddbd v1.5.2PL0 Copyright (c) Steve Scherf et al.
# Submitted via: xmcd 2.6 PL0
#
DISCID=ef12a810,f612a610
DTITLE=Steely Dan - Then And Now (The Best Of)
DYEAR=1900
DGENRE=
TTITLE0=Reelin' In The Years
TTITLE1=Rikki Don't Lose That Number
TTITLE2=Peg
TTITLE3=FM
TTITLE4=Hey Nineteen
TTITLE5=Deacon Blues
TTITLE6=Black Friday
TTITLE7=Bodhisattva
TTITLE8=Do It Again
TTITLE9=Haitian Divorce
TTITLE10=My Old School
TTITLE11=Midnite Cruiser
TTITLE12=Babylon Sisters
TTITLE13=Kid Charlemagne
TTITLE14=Dirty Work
TTITLE15=Josie
EXTD=
EXTT0=
EXTT1=
EXTT2=
EXTT3=
EXTT4=
EXTT5=
EXTT6=
EXTT7=
EXTT8=
EXTT9=
EXTT10=
EXTT11=
EXTT12=
EXTT13=
EXTT14=
EXTT15=
PLAYORDER=
